<?xml version="1.0"?>
<svg xmlns="http://www.w3.org/2000/svg" viewBox="0 0 80 80">
    <path style="line-height:normal;text-indent:0;text-align:start;text-decoration-line:none;text-decoration-style:solid;text-decoration-color:#000;text-transform:none;block-progression:tb;isolation:auto;mix-blend-mode:normal" d="M 40 7 C 35.194439 7 31.134158 9.8922576 29.222656 13.984375 C 24.977373 12.443655 20.063418 13.268614 16.666016 16.666016 C 13.268196 20.063835 12.44289 24.979614 13.984375 29.224609 C 9.8919935 31.136294 7 35.194912 7 40 C 7 44.805088 9.8919935 48.863706 13.984375 50.775391 C 12.44289 55.020386 13.268196 59.936165 16.666016 63.333984 C 20.063835 66.731804 24.979614 67.55711 29.224609 66.015625 C 31.136294 70.108007 35.194912 73 40 73 C 44.805428 73 48.865841 70.108474 50.777344 66.015625 C 55.022627 67.556345 59.936582 66.731386 63.333984 63.333984 C 66.731804 59.936165 67.55711 55.020386 66.015625 50.775391 C 70.108007 48.863706 73 44.805088 73 40 C 73 35.194572 70.108474 31.134159 66.015625 29.222656 C 67.556345 24.977373 66.731386 20.063418 63.333984 16.666016 C 59.936165 13.268196 55.020386 12.44289 50.775391 13.984375 C 48.863708 9.8927248 44.80522 7 40 7 z M 40 9 C 44.297342 9 47.93781 11.7074 49.357422 15.5 L 49.732422 16.503906 L 50.707031 16.060547 C 54.392275 14.382875 58.881376 15.041532 61.919922 18.080078 C 64.958539 21.118695 65.617244 25.606556 63.939453 29.292969 L 63.496094 30.267578 L 64.5 30.644531 C 68.293573 32.064167 71 35.702517 71 40 C 71 44.297483 68.293573 47.935833 64.5 49.355469 L 63.496094 49.732422 L 63.939453 50.707031 C 65.617125 54.392275 64.958468 58.881376 61.919922 61.919922 C 58.881305 64.958539 54.393444 65.617244 50.707031 63.939453 L 49.732422 63.496094 L 49.355469 64.5 C 47.935833 68.293573 44.297483 71 40 71 C 35.702517 71 32.064167 68.293573 30.644531 64.5 L 30.267578 63.496094 L 29.292969 63.939453 C 25.607725 65.617125 21.118624 64.958468 18.080078 61.919922 C 15.041532 58.881376 14.382875 54.392275 16.060547 50.707031 L 16.503906 49.732422 L 15.5 49.355469 C 11.706427 47.935833 9 44.297483 9 40 C 9 35.702517 11.706427 32.064167 15.5 30.644531 L 16.503906 30.267578 L 16.060547 29.292969 C 14.382875 25.607725 15.041532 21.118624 18.080078 18.080078 C 21.118695 15.041461 25.606556 14.382756 29.292969 16.060547 L 30.267578 16.503906 L 30.642578 15.5 C 32.06219 11.7074 35.702658 9 40 9 z M 40 12 A 1 1 0 0 0 39 13 A 1 1 0 0 0 40 14 A 1 1 0 0 0 41 13 A 1 1 0 0 0 40 12 z M 40 18 A 1 1 0 0 0 39 19 A 1 1 0 0 0 40 20 A 1 1 0 0 0 41 19 A 1 1 0 0 0 40 18 z M 34.574219 18.714844 A 1 1 0 0 0 34.503906 18.716797 A 1 1 0 0 0 34.306641 18.75 A 1 1 0 0 0 33.599609 19.974609 A 1 1 0 0 0 34.824219 20.681641 A 1 1 0 0 0 35.53125 19.457031 A 1 1 0 0 0 34.574219 18.714844 z M 45.425781 18.716797 A 1 1 0 0 0 44.46875 19.457031 A 1 1 0 0 0 45.175781 20.683594 A 1 1 0 0 0 46.400391 19.974609 A 1 1 0 0 0 45.693359 18.75 A 1 1 0 0 0 45.425781 18.716797 z M 20.921875 19.908203 A 1 1 0 0 0 20.201172 20.201172 A 1 1 0 0 0 20.201172 21.615234 A 1 1 0 0 0 21.615234 21.615234 A 1 1 0 0 0 21.615234 20.201172 A 1 1 0 0 0 20.921875 19.908203 z M 59.105469 19.908203 A 1 1 0 0 0 58.384766 20.201172 A 1 1 0 0 0 58.384766 21.615234 A 1 1 0 0 0 59.798828 21.615234 A 1 1 0 0 0 59.798828 20.201172 A 1 1 0 0 0 59.105469 19.908203 z M 29.476562 20.8125 A 1 1 0 0 0 29 20.945312 A 1 1 0 0 0 28.632812 22.3125 A 1 1 0 0 0 30 22.677734 A 1 1 0 0 0 30.365234 21.3125 A 1 1 0 0 0 29.476562 20.8125 z M 50.451172 20.814453 A 1 1 0 0 0 49.632812 21.314453 A 1 1 0 0 0 50 22.679688 A 1 1 0 0 0 51.365234 22.314453 A 1 1 0 0 0 51 20.947266 A 1 1 0 0 0 50.451172 20.814453 z M 25.166016 24.150391 A 1 1 0 0 0 24.443359 24.443359 A 1 1 0 0 0 24.443359 25.857422 A 1 1 0 0 0 25.859375 25.857422 A 1 1 0 0 0 25.859375 24.443359 A 1 1 0 0 0 25.166016 24.150391 z M 54.863281 24.150391 A 1 1 0 0 0 54.142578 24.443359 A 1 1 0 0 0 54.142578 25.857422 A 1 1 0 0 0 55.556641 25.857422 A 1 1 0 0 0 55.556641 24.443359 A 1 1 0 0 0 54.863281 24.150391 z M 58.162109 28.5 A 1 1 0 0 0 57.685547 28.632812 A 1 1 0 0 0 57.318359 30 A 1 1 0 0 0 58.685547 30.365234 A 1 1 0 0 0 59.050781 29 A 1 1 0 0 0 58.162109 28.5 z M 21.765625 28.501953 A 1 1 0 0 0 20.947266 29 A 1 1 0 0 0 21.3125 30.365234 A 1 1 0 0 0 22.679688 30 A 1 1 0 0 0 22.3125 28.634766 A 1 1 0 0 0 21.765625 28.501953 z M 50.958984 32.074219 L 37.734375 44.824219 L 31.074219 37.992188 L 28.925781 40.087891 L 37.669922 49.054688 L 53.041016 34.234375 L 50.958984 32.074219 z M 19.707031 33.566406 A 1 1 0 0 0 18.75 34.306641 A 1 1 0 0 0 19.457031 35.53125 A 1 1 0 0 0 20.681641 34.824219 A 1 1 0 0 0 19.974609 33.599609 A 1 1 0 0 0 19.707031 33.566406 z M 60.322266 33.566406 A 1 1 0 0 0 60.025391 33.601562 A 1 1 0 0 0 59.318359 34.826172 A 1 1 0 0 0 60.542969 35.533203 A 1 1 0 0 0 61.25 34.308594 A 1 1 0 0 0 60.322266 33.566406 z M 13 39 A 1 1 0 0 0 12 40 A 1 1 0 0 0 13 41 A 1 1 0 0 0 14 40 A 1 1 0 0 0 13 39 z M 19 39 A 1 1 0 0 0 18 40 A 1 1 0 0 0 19 41 A 1 1 0 0 0 20 40 A 1 1 0 0 0 19 39 z M 61 39 A 1 1 0 0 0 60 40 A 1 1 0 0 0 61 41 A 1 1 0 0 0 62 40 A 1 1 0 0 0 61 39 z M 67 39 A 1 1 0 0 0 66 40 A 1 1 0 0 0 67 41 A 1 1 0 0 0 68 40 A 1 1 0 0 0 67 39 z M 19.751953 44.435547 A 1 1 0 0 0 19.455078 44.46875 A 1 1 0 0 0 18.748047 45.695312 A 1 1 0 0 0 19.972656 46.402344 A 1 1 0 0 0 20.679688 45.177734 A 1 1 0 0 0 19.751953 44.435547 z M 60.275391 44.4375 A 1 1 0 0 0 59.318359 45.177734 A 1 1 0 0 0 60.025391 46.402344 A 1 1 0 0 0 61.25 45.695312 A 1 1 0 0 0 60.542969 44.470703 A 1 1 0 0 0 60.275391 44.4375 z M 21.789062 49.498047 A 1 1 0 0 0 21.3125 49.632812 A 1 1 0 0 0 20.947266 50.998047 A 1 1 0 0 0 22.3125 51.365234 A 1 1 0 0 0 22.677734 49.998047 A 1 1 0 0 0 21.789062 49.498047 z M 58.136719 49.503906 A 1 1 0 0 0 57.318359 50.001953 A 1 1 0 0 0 57.685547 51.367188 A 1 1 0 0 0 59.050781 51.001953 A 1 1 0 0 0 58.685547 49.636719 A 1 1 0 0 0 58.136719 49.503906 z M 25.164062 53.849609 A 1 1 0 0 0 24.443359 54.140625 A 1 1 0 0 0 24.443359 55.556641 A 1 1 0 0 0 25.857422 55.556641 A 1 1 0 0 0 25.857422 54.140625 A 1 1 0 0 0 25.164062 53.849609 z M 54.863281 53.849609 A 1 1 0 0 0 54.140625 54.142578 A 1 1 0 0 0 54.140625 55.556641 A 1 1 0 0 0 55.554688 55.556641 A 1 1 0 0 0 55.554688 54.142578 A 1 1 0 0 0 54.863281 53.849609 z M 50.474609 57.183594 A 1 1 0 0 0 49.998047 57.318359 A 1 1 0 0 0 49.632812 58.683594 A 1 1 0 0 0 50.998047 59.050781 A 1 1 0 0 0 51.365234 57.683594 A 1 1 0 0 0 50.474609 57.183594 z M 29.451172 57.1875 A 1 1 0 0 0 28.632812 57.6875 A 1 1 0 0 0 28.998047 59.052734 A 1 1 0 0 0 30.365234 58.6875 A 1 1 0 0 0 29.998047 57.320312 A 1 1 0 0 0 29.451172 57.1875 z M 20.921875 58.091797 A 1 1 0 0 0 20.201172 58.384766 A 1 1 0 0 0 20.201172 59.798828 A 1 1 0 0 0 21.615234 59.798828 A 1 1 0 0 0 21.615234 58.384766 A 1 1 0 0 0 20.921875 58.091797 z M 59.105469 58.091797 A 1 1 0 0 0 58.384766 58.384766 A 1 1 0 0 0 58.384766 59.798828 A 1 1 0 0 0 59.798828 59.798828 A 1 1 0 0 0 59.798828 58.384766 A 1 1 0 0 0 59.105469 58.091797 z M 34.554688 59.285156 A 1 1 0 0 0 33.597656 60.027344 A 1 1 0 0 0 34.304688 61.251953 A 1 1 0 0 0 35.529297 60.544922 A 1 1 0 0 0 34.822266 59.320312 A 1 1 0 0 0 34.554688 59.285156 z M 45.472656 59.285156 A 1 1 0 0 0 45.175781 59.318359 A 1 1 0 0 0 44.46875 60.544922 A 1 1 0 0 0 45.693359 61.251953 A 1 1 0 0 0 46.400391 60.027344 A 1 1 0 0 0 45.472656 59.285156 z M 40 60 A 1 1 0 0 0 39 61 A 1 1 0 0 0 40 62 A 1 1 0 0 0 41 61 A 1 1 0 0 0 40 60 z M 40 66 A 1 1 0 0 0 39 67 A 1 1 0 0 0 40 68 A 1 1 0 0 0 41 67 A 1 1 0 0 0 40 66 z"/>
</svg>
